HIERARCHY
ROOT Hips
{
   OFFSET 0.00000 0.00000 0.00000
   CHANNELS 6 Xposition Yposition Zposition Zrotation Xrotation Yrotation
   JOINT RightUpLeg
   {
      OFFSET -11.629540 -11.267191 0.132148
      CHANNELS 3 Zrotation Xrotation Yrotation
      JOINT RightLeg
      {
         OFFSET 0.000000 -57.749504 1.784510
         CHANNELS 3 Zrotation Xrotation Yrotation
         JOINT RightFoot
         {
            OFFSET 0.329614 -54.720115 -1.898767
            CHANNELS 3 Zrotation Xrotation Yrotation
            JOINT RightToes
            {
               OFFSET 0.052000 -5.739617 11.048829
               CHANNELS 3 Zrotation Xrotation Yrotation
               End Site
               {
                  OFFSET -0.104000 -0.178682 12.713727
               }
            }
         }
      }
   }
   JOINT Spine
   {
      OFFSET 0.000000 15.457650 0.000000
      CHANNELS 3 Zrotation Xrotation Yrotation
      JOINT Spine1
      {
         OFFSET 0.000000 33.354620 0.165962
         CHANNELS 3 Zrotation Xrotation Yrotation
         JOINT HEad
         {
            OFFSET 0.000000 11.354408 0.014743
            CHANNELS 3 Zrotation Xrotation Yrotation
            End Site
            {
               OFFSET -0.377000 16.606459 3.268135
            }
         }
         JOINT LeftShoulder1
         {
            OFFSET 11.687000 -0.470928 -0.286000
            CHANNELS 3 Zrotation Xrotation Yrotation
            JOINT LeftArm
            {
               OFFSET 13.367510 -0.004394 0.418760
               CHANNELS 3 Zrotation Xrotation Yrotation
               JOINT LeftForeArm
               {
                  OFFSET 42.596969 0.128887 -1.851642
                  CHANNELS 3 Zrotation Xrotation Yrotation
                  JOINT LeftHand
                  {
                     OFFSET 35.833589 0.110971 1.328808
                     CHANNELS 3 Zrotation Xrotation Yrotation
                     End Site
                     {
                        OFFSET 21.767590 -0.780000 1.953783
                     }
                  }
               }
            }
         }
         JOINT RightShoulder
         {
            OFFSET -11.687000 -0.470928 -0.286000
            CHANNELS 3 Zrotation Xrotation Yrotation
            JOINT RightArm
            {
               OFFSET -13.367510 -0.004394 0.418760
               CHANNELS 3 Zrotation Xrotation Yrotation
               JOINT RightForeArm
               {
                  OFFSET -42.766227 0.128887 -1.851642
                  CHANNELS 3 Zrotation Xrotation Yrotation
                  JOINT RightHand
                  {
                     OFFSET -35.739729 0.110971 1.328808
                     CHANNELS 3 Zrotation Xrotation Yrotation
                     End Site
                     {
                        OFFSET -21.620562 -0.780000 1.953783
                     }
                  }
               }
            }
         }
      }
   }
   JOINT LeftUpLeg
   {
      OFFSET 11.629540 -11.267191 0.132148
      CHANNELS 3 Zrotation Xrotation Yrotation
      JOINT LeftLeg
      {
         OFFSET 0.000000 -57.749504 1.784510
         CHANNELS 3 Zrotation Xrotation Yrotation
         JOINT LeftFoot
         {
            OFFSET -0.329614 -54.720115 -1.898767
            CHANNELS 3 Zrotation Xrotation Yrotation
            JOINT LeftToes
            {
               OFFSET -0.052000 -5.739617 11.048829
               CHANNELS 3 Zrotation Xrotation Yrotation
               End Site
               {
                  OFFSET 0.104000 -0.061682 12.713727
               }
            }
         }
      }
   }
}
MOTION
Frames: 18
Frame Time: 0.016667
-308.609309 109.996050 -3.723713 -22.071896 57.547609 -139.749782 10.614505 36.139422 63.934204 38.283938 15.992362 -9.936181 -71.975393 52.646876 9.981027 -5.768844 -16.696845 -41.404337 32.219273 51.738755 140.301798 50.797548 -35.718454 -129.889065 -6.968258 25.318058 22.284561 61.409179 66.069834 -51.550040 272.332374 92.195785 -247.127391 -64.148898 145.443728 2.896435 -38.880121 -46.067003 -76.981580 16.921881 38.592092 43.714396 -37.997425 122.224582 313.906506 31.572645 175.736888 77.539094 -41.700948 -52.803735 30.516052 56.312772 27.867180 74.301052 23.385746 23.002783 87.223688 -42.159298 97.355638 -5.577887 43.026722 -13.331559 -76.043426
-310.024009 110.856493 -3.051195 -21.844842 56.570629 -139.937366 10.217540 35.646324 64.050932 37.431954 15.809304 -10.304420 -72.175032 52.608169 9.667308 -5.911695 -16.844981 -41.431637 30.814501 51.289417 140.919315 49.864950 -34.849059 -130.073918 -7.492991 24.238627 22.215117 60.528406 65.518473 -51.966757 271.982012 92.788858 -246.145947 -64.951622 145.960705 2.422685 -39.143059 -45.581240 -76.452295 15.501551 38.802055 43.456351 -39.263595 120.754712 312.798622 33.441146 176.199688 79.632308 -41.137164 -51.830962 32.001670 55.651333 28.700079 75.905176 22.247579 23.673178 85.830329 -40.973284 97.610233 -5.996797 42.927152 -13.681956 -76.379874
-311.469054 111.576432 -2.363354 -21.727882 56.563515 -140.696679 10.094726 35.739282 64.652884 36.797446 15.852452 -11.001681 -72.136701 52.690740 9.629097 -6.067600 -16.927956 -41.307423 30.161723 50.273662 141.668533 48.450118 -33.545446 -129.622920 -8.654293 23.434727 22.359432 59.527639 64.668176 -53.028359 272.115693 92.543210 -243.246013 -64.145346 145.749461 2.089892 -38.803794 -45.501221 -76.027020 16.218300 40.364239 43.934680 -35.066113 119.296876 314.506825 31.588109 178.676574 79.206111 -41.163856 -52.542217 32.903330 55.929605 30.043912 76.413226 21.741940 25.130735 84.806702 -39.861691 98.244253 -6.094743 42.664579 -14.060336 -76.263133
-312.956691 112.076290 -1.609128 -21.535066 57.214135 -141.457944 10.360197 36.188753 65.490039 36.184020 15.478112 -11.890931 -72.168701 52.906140 9.788586 -6.397647 -17.085442 -40.829279 30.644272 50.449966 141.874340 49.830875 -32.765783 -127.346609 -9.149618 24.485590 22.237042 58.847995 67.812031 -53.563856 272.049822 90.614105 -237.878659 -63.357408 147.999845 1.332303 -40.004469 -43.721970 -73.340024 14.511411 41.921252 43.751204 -32.749381 116.038056 313.576389 31.325884 181.756006 80.471083 -40.768016 -53.001667 32.738275 56.781897 31.085485 76.041083 21.792892 26.103602 84.126525 -38.784126 98.802149 -6.150257 42.399308 -14.546423 -76.208724
-314.373946 112.322214 -0.858494 -22.781486 58.961997 -142.021448 10.618176 37.675371 66.574913 36.251260 15.634071 -12.967801 -72.166331 53.075751 9.980979 -6.812057 -17.343505 -40.295927 31.830150 48.530447 142.888281 51.142838 -30.731354 -126.446978 -9.268412 24.888866 22.097371 57.063956 74.537752 -54.786464 -87.329638 90.448787 -229.809747 -62.867308 149.933785 -1.829683 -40.029276 -42.889142 -69.811985 14.802844 44.705299 45.227228 -27.809332 113.025984 314.214438 34.403950 182.424217 83.676060 -39.340063 -52.314895 36.625479 57.984631 34.104016 75.496540 21.608333 27.441712 83.863419 -38.231215 98.462593 -6.636412 42.200443 -15.210411 -76.066164
-316.007800 112.459124 -0.161887 -22.445105 59.647120 -141.867933 11.472592 37.270010 66.933286 37.041875 14.585647 -14.312122 -72.111669 53.735728 10.447515 -7.309399 -17.459357 -39.477913 31.810056 50.658099 144.912818 48.646199 -29.474739 -126.663126 -9.388787 26.053033 21.949730 55.475466 75.781844 -56.581321 -87.800484 87.418307 -223.892781 -60.426766 149.882614 -3.086016 -38.737872 -43.313330 -66.146462 11.799193 45.306011 45.826119 -24.237461 110.760923 312.376434 35.620796 182.661279 81.599628 -39.144265 -53.536382 37.052711 58.466938 35.503135 75.337792 19.878354 27.284990 83.214462 -39.116510 96.905296 -9.127276 42.147994 -16.611619 -77.046501
-317.909484 112.549771 0.390671 -22.636680 59.322283 -141.703380 11.569688 36.266102 67.521625 37.747112 13.845345 -16.000731 -72.330221 54.244761 10.479016 -7.798336 -17.527331 -38.622319 32.463315 51.521910 147.312810 45.486451 -26.733540 -127.406169 -8.753570 27.408975 21.660304 52.063660 76.792418 -57.248822 -91.833683 85.040780 -219.173517 -60.974711 147.975816 -7.589597 -38.058193 -43.415527 -66.117044 7.327086 48.245854 45.198309 -16.958142 106.807063 312.701551 33.805082 181.445505 76.058664 -38.794412 -53.585149 29.846981 58.363577 36.685745 74.109806 17.881403 28.518215 83.070543 -38.899300 96.359831 -10.091088 42.253217 -17.084902 -77.461558
-319.932857 112.648781 0.940550 -23.007038 59.661996 -141.115929 11.070435 36.617805 68.393826 37.855196 12.585305 -17.201666 -72.404240 53.529405 10.187130 -8.317483 -17.491797 -37.229377 29.415572 51.891290 148.968748 42.488039 -23.779886 -128.816808 -8.202886 25.884431 21.597048 50.957743 75.485372 -58.990807 -95.051556 80.904171 -214.539029 -57.599764 147.097604 -8.266267 -37.693878 -43.020548 -63.142121 1.956644 53.237684 46.569183 -11.668460 105.968835 308.590105 31.766438 183.696176 71.252192 -38.425101 -52.899125 23.211349 59.137567 38.079039 72.048148 15.727426 29.757075 83.404021 -39.206778 95.556232 -11.185729 42.125144 -18.004905 -77.853542
-321.745524 113.320301 1.503152 -23.413900 60.362111 -141.338730 10.792099 37.296750 69.581097 37.647982 12.707231 -17.281470 -71.892085 52.456444 9.901131 -8.678450 -16.933154 -35.083758 29.052742 51.583467 149.271148 39.923255 -23.350499 -129.522230 -5.739181 24.252730 21.086512 48.348198 75.848834 -59.077107 -99.836404 75.880922 -209.648435 -53.006861 146.024445 -10.635593 -38.123527 -40.118489 -64.194796 -1.027063 58.150318 47.142153 -5.979409 101.728701 303.795804 31.150939 184.781315 67.910255 -43.034785 -48.489562 18.998687 58.057626 39.075615 71.399020 15.424314 29.108928 83.622880 -39.415253 92.947304 -13.072369 41.072400 -20.202817 -78.016722
-323.140750 113.547343 2.216807 -21.821940 61.009162 -144.208858 10.316407 37.599495 70.728514 37.015927 13.230381 -16.347228 -71.231387 49.956236 8.739780 -8.834120 -16.135224 -32.748148 30.401455 57.247135 147.296199 37.541360 -21.459464 -129.044676 -1.318379 24.653264 19.863233 41.477447 72.761431 -54.756073 -101.210815 70.804172 -207.957759 -52.014274 141.058296 -15.283423 -37.776718 -37.713631 -68.055834 0.806506 60.820328 47.235235 -2.367279 94.839799 298.994072 32.810747 182.387825 70.545984 -50.966670 -44.063094 20.087530 56.302581 38.678999 69.982514 18.263934 28.862173 83.046542 -39.455175 89.502396 -15.092363 39.764125 -22.409262 -77.635366
-324.035716 113.698796 2.998910 -20.395771 59.666709 -144.172466 9.899859 35.761238 71.760126 37.121071 13.702679 -13.987926 -70.214317 46.351282 7.501614 -8.891581 -15.197270 -29.879967 31.706927 67.977034 145.459096 34.887896 -14.884592 -129.327023 3.403431 24.659529 18.568481 28.518874 66.445631 -48.773739 -106.397832 68.120229 -208.949803 -57.517870 134.793128 -26.114340 -39.403665 -33.252404 -70.126618 3.722760 67.094089 46.466713 1.532967 86.422896 292.642679 32.579336 181.355989 71.861042 -57.092957 -36.087858 23.704901 52.893128 36.082055 71.155845 18.978137 27.309157 81.876237 -39.738061 85.972308 -16.755663 38.462872 -24.004177 -76.491384
-324.291453 114.498709 4.325732 -26.936278 59.515372 -143.077109 6.364460 38.265728 72.057410 34.896481 17.877902 -10.723026 -69.211714 45.722799 5.457818 -8.393898 -13.385334 -27.376899 30.926963 56.785025 138.699244 39.399591 -13.449753 -123.966185 7.917165 26.160547 17.572168 18.453996 67.268887 -42.026478 -111.790082 53.226165 -198.461255 -48.133412 132.588506 -27.331591 -44.291369 -29.765859 -69.337581 9.467863 76.238606 47.457152 7.218739 84.342236 286.612059 27.242141 184.078215 67.614146 -55.628807 -24.449195 16.462436 47.632295 40.196076 72.029133 19.189623 28.386095 77.478305 -38.991211 84.753283 -16.154883 37.672967 -24.538549 -75.042448
-324.504542 115.499323 5.604931 -31.169493 58.225764 -138.496483 5.787372 38.643301 69.103449 32.382617 17.358400 -4.922880 -67.054863 46.762190 4.418693 -7.441784 -10.764986 -24.627313 28.345408 51.791859 135.117562 34.482620 -11.502254 -121.131615 12.847696 29.614099 16.708139 6.292256 62.457326 -34.346132 -118.397900 39.954660 -186.876790 -40.594263 125.870360 -34.242764 -49.790091 -29.974080 -69.153459 1.958070 80.642739 49.844692 13.416673 78.119517 289.039453 27.215013 180.897492 66.486134 -47.303964 -32.474216 22.197442 45.551590 41.307068 74.439595 17.489541 29.394013 69.987200 -41.527892 84.627519 -14.868374 37.236313 -24.738631 -73.845560
-324.665866 116.330336 6.778657 -36.517374 60.159992 -137.544014 4.048318 43.156185 66.745818 28.607902 20.017683 2.854767 -65.048434 47.573760 3.154662 -6.347667 -8.173757 -21.722425 27.696719 46.691105 133.662513 26.225061 -7.117715 -118.203281 14.436754 32.335369 17.101964 -2.620827 56.268335 -26.873904 -121.585044 23.460725 -169.131767 -28.869280 121.263657 -40.576433 -59.928428 -29.369591 -67.712016 -5.908865 86.981851 56.411820 20.228736 76.583797 294.298262 34.950143 176.977879 60.968051 -45.884460 -27.138148 22.283472 44.931891 45.127173 73.810432 20.890400 30.425248 60.517873 -42.294669 85.142030 -12.009353 37.557342 -23.960599 -72.970633
-324.724154 117.399986 7.874911 -37.469984 61.560939 -138.132667 4.932257 43.524950 63.163663 26.771159 19.534823 8.928234 -55.982105 45.015779 -0.795227 -5.437375 -7.350558 -20.584549 27.159962 49.716834 127.107457 20.886075 -5.228141 -115.491177 16.250138 39.549247 17.885180 -10.700281 40.353389 -20.891264 -121.092437 13.464718 -156.957897 -18.327957 111.820626 -49.545250 -53.527817 -33.365556 -61.351846 -16.906339 93.104754 65.373257 18.176409 75.272578 293.676004 41.865911 177.595778 61.469756 -41.572339 -30.560852 26.075958 43.370656 46.168114 72.200086 23.983089 26.986226 48.250266 -44.126553 85.042754 -11.295792 38.353319 -24.033868 -74.286934
-324.553294 118.091028 9.183253 -37.128096 66.338834 -142.380662 6.199986 46.733121 59.942410 26.395514 21.703199 11.436931 -48.967416 40.560600 -6.287065 -4.797927 -8.704860 -21.692151 32.640781 46.457782 120.517540 15.292804 -4.421234 -113.307470 14.298927 44.245218 20.683747 -11.271797 29.635235 -18.963283 -117.519702 -1.185226 -141.563594 -6.538990 109.422226 -53.497733 -55.899327 -35.313584 -56.435609 -31.604341 102.551452 75.276608 15.341604 80.702640 292.698522 42.639314 183.912870 61.181208 -40.698440 -25.477012 22.151997 42.116241 49.293902 71.615346 29.728238 21.456254 37.872549 -44.461110 86.033131 -7.780294 39.054851 -22.056305 -73.783897
-324.124904 118.961714 10.589502 -33.370737 67.349114 -146.296997 9.078134 45.888185 59.730359 26.462040 20.619236 10.996221 -50.784225 39.206775 -7.955267 -3.974241 -9.730603 -22.330340 38.425842 47.534097 114.053606 9.020830 -4.274341 -112.812588 12.065681 48.300458 24.434297 -10.155498 20.962884 -21.427367 -111.506486 -9.188100 -129.112049 4.034936 103.605671 -57.692258 -49.203095 -36.702086 -48.789807 -48.977101 107.232467 84.965989 13.794504 85.386094 292.713767 40.220515 187.212944 60.581599 -39.349300 -27.906495 21.122927 39.204118 47.371870 74.036054 32.018755 16.559795 31.172143 -44.294074 86.898325 -4.120571 39.683488 -20.392460 -73.584736
-323.548007 119.602326 12.091831 -29.640432 68.351151 -151.150529 10.114248 45.322000 60.973993 26.191539 18.935415 8.557607 -47.802479 39.081909 -8.919786 -3.390262 -11.010168 -23.043113 43.277175 44.430217 113.046297 5.474144 -2.272287 -111.795211 11.684730 51.439900 27.509617 -10.791361 14.551499 -24.121942 -107.378374 -17.244440 -117.942259 9.629336 99.694643 -60.761028 -49.496554 -37.525899 -48.836300 -66.602384 111.747359 94.973275 11.799059 91.266832 293.871184 39.580888 190.779942 63.348440 -39.732146 -26.287200 19.403131 36.805379 46.969514 76.488522 33.619960 14.284473 27.726171 -44.637059 87.468495 -1.319479 40.058701 -19.338808 -73.706730
